<svg viewBox="0 0 240 240" xmlns="http://www.w3.org/2000/svg" role="img" aria-labelledby="logoTitle">
  <title id="logoTitle">Aroma &amp; Café</title>
  <defs>
    <circle id="ringPath" cx="120" cy="120" r="98"/>
  </defs>

  <circle cx="120" cy="120" r="118" fill="none" stroke="#C9A15C" stroke-width="1"/>
  <circle cx="120" cy="120" r="108" fill="none" stroke="#C9A15C" stroke-width="1" opacity="0.5"/>

  <!-- steam -->
  <g stroke="#C9A15C" stroke-width="3.2" fill="none" stroke-linecap="round">
    <path d="M100 58c-6 8 6 12 0 20s6 12 0 20" opacity="0.85"/>
    <path d="M120 52c-6 8 6 12 0 20s6 12 0 20" opacity="0.6"/>
    <path d="M140 58c-6 8 6 12 0 20s6 12 0 20" opacity="0.85"/>
  </g>

  <!-- cup -->
  <g fill="none" stroke="#C9A15C" stroke-width="3.5" stroke-linecap="round" stroke-linejoin="round">
    <path d="M74 108h84v34c0 24-19 42-42 42s-42-18-42-42v-34z"/>
    <path d="M158 116h10c9 0 16 7 16 16s-7 16-16 16h-8"/>
    <path d="M66 168h96" stroke-width="4"/>
  </g>

  <text font-family="Georgia, 'Times New Roman', serif" font-size="15.5" letter-spacing="4" fill="#C9A15C">
    <textPath href="#ringPath" startOffset="25%" text-anchor="middle">AROMA &amp; CAFÉ</textPath>
  </text>
</svg>
